<svg xmlns="http://www.w3.org/2000/svg" data-v-fde0c5aa="" class="iconLeft" viewBox="40 129.97 220 40.06"><!----><defs data-v-fde0c5aa=""><!----></defs><defs data-v-fde0c5aa=""><!----></defs><g data-v-fde0c5aa="" id="755d6c87-bd5b-49d1-9e0b-220a6731f449" fill="#000000" transform="matrix(2.7446896655863284,0,0,2.7446896655863284,79.50921023475847,118.97128380170376)"><path d="M1.30 15.83C1.30 16.02 1.46 16.17 1.64 16.17C1.83 16.17 1.99 16.02 1.99 15.83L1.99 11.91C2.58 12.73 3.53 13.26 4.59 13.26C6.44 13.26 7.91 11.70 7.91 9.84C7.91 7.97 6.44 6.44 4.59 6.44C3.53 6.44 2.58 6.97 1.99 7.77L1.99 6.78C1.99 6.59 1.83 6.44 1.64 6.44C1.46 6.44 1.30 6.59 1.30 6.78L1.30 9.70L1.30 9.84L1.30 9.98ZM1.99 9.73C2.04 8.27 3.21 7.13 4.59 7.13C6.05 7.13 7.22 8.33 7.22 9.84C7.22 11.35 6.05 12.57 4.59 12.59C3.18 12.57 1.99 11.35 1.99 9.84ZM15.96 6.44C15.78 6.44 15.62 6.58 15.62 6.78L15.62 7.78C15.04 6.97 14.10 6.44 13.05 6.44C11.24 6.44 9.80 7.99 9.80 9.87C9.80 11.75 11.24 13.30 13.05 13.30C14.10 13.30 15.04 12.75 15.62 11.94L15.62 12.96C15.62 13.15 15.78 13.30 15.96 13.30C16.14 13.30 16.30 13.15 16.30 12.96L16.30 6.78C16.30 6.58 16.14 6.44 15.96 6.44ZM13.05 12.63C11.65 12.63 10.47 11.41 10.47 9.87C10.47 8.33 11.65 7.10 13.05 7.10C14.46 7.10 15.62 8.33 15.62 9.87C15.62 11.41 14.46 12.63 13.05 12.63ZM18.77 12.32L18.77 12.32C19.33 12.77 20.20 13.29 21.31 13.30L21.31 13.30C21.98 13.30 22.54 13.10 23.02 12.75L23.02 12.75C23.48 12.40 23.80 11.94 23.80 11.37L23.80 11.37C23.80 10.79 23.48 10.26 23.03 9.97L23.03 9.97C22.55 9.70 22.02 9.51 21.36 9.41L21.34 9.41L21.34 9.41C20.71 9.31 20.24 9.14 19.94 8.93L19.94 8.93C19.67 8.72 19.54 8.53 19.54 8.25L19.54 8.25C19.54 7.97 19.70 7.69 19.98 7.46L19.98 7.46C20.27 7.22 20.72 7.07 21.28 7.07L21.28 7.07C21.95 7.07 22.46 7.42 22.96 7.76L22.96 7.76C23.11 7.85 23.32 7.81 23.42 7.66L23.42 7.66C23.52 7.50 23.48 7.29 23.32 7.18L23.32 7.18C22.79 6.85 22.16 6.44 21.28 6.44L21.28 6.44C20.58 6.44 20.01 6.62 19.60 6.90L19.60 6.90C19.17 7.22 18.86 7.70 18.86 8.25L18.86 8.25C18.86 8.78 19.17 9.23 19.60 9.48L19.60 9.48C19.99 9.76 20.54 9.90 21.15 10.01L21.18 10.02L21.18 10.02C21.85 10.14 22.34 10.30 22.64 10.53L22.64 10.53C22.99 10.82 23.11 11.05 23.13 11.37L23.13 11.37C23.13 11.68 22.95 11.98 22.61 12.21L22.61 12.21C22.30 12.46 21.84 12.63 21.31 12.63L21.31 12.63C20.44 12.63 19.68 12.18 19.21 11.83L19.21 11.83C19.05 11.70 18.84 11.73 18.73 11.87L18.73 11.87C18.62 12.01 18.63 12.19 18.77 12.32ZM25.52 12.32L25.52 12.32C26.08 12.77 26.95 13.29 28.06 13.30L28.06 13.30C28.73 13.30 29.29 13.10 29.76 12.75L29.76 12.75C30.23 12.40 30.55 11.94 30.55 11.37L30.55 11.37C30.55 10.79 30.23 10.26 29.78 9.97L29.78 9.97C29.30 9.70 28.77 9.51 28.11 9.41L28.08 9.41L28.08 9.41C27.45 9.31 26.99 9.14 26.68 8.93L26.68 8.93C26.42 8.72 26.29 8.53 26.29 8.25L26.29 8.25C26.29 7.97 26.45 7.69 26.73 7.46L26.73 7.46C27.02 7.22 27.47 7.07 28.03 7.07L28.03 7.07C28.70 7.07 29.20 7.42 29.71 7.76L29.71 7.76C29.86 7.85 30.07 7.81 30.17 7.66L30.17 7.66C30.27 7.50 30.23 7.29 30.07 7.18L30.07 7.18C29.54 6.85 28.91 6.44 28.03 6.44L28.03 6.44C27.33 6.44 26.75 6.62 26.35 6.90L26.35 6.90C25.91 7.22 25.61 7.70 25.61 8.25L25.61 8.25C25.61 8.78 25.91 9.23 26.35 9.48L26.35 9.48C26.74 9.76 27.29 9.90 27.90 10.01L27.93 10.02L27.93 10.02C28.60 10.14 29.09 10.30 29.39 10.53L29.39 10.53C29.74 10.82 29.86 11.05 29.88 11.37L29.88 11.37C29.88 11.68 29.69 11.98 29.36 12.21L29.36 12.21C29.05 12.46 28.59 12.63 28.06 12.63L28.06 12.63C27.19 12.63 26.43 12.18 25.96 11.83L25.96 11.83C25.80 11.70 25.59 11.73 25.48 11.87L25.48 11.87C25.37 12.01 25.38 12.19 25.52 12.32ZM34.99 13.27C35.03 13.29 35.07 13.30 35.11 13.30C35.22 13.30 35.36 13.22 35.41 13.09C35.41 13.08 35.42 13.06 35.42 13.06L37.00 9.28L38.60 13.08L38.61 13.09C38.64 13.20 38.77 13.29 38.88 13.30L38.92 13.30L38.95 13.30C39.00 13.30 39.06 13.27 39.12 13.23C39.17 13.19 39.21 13.13 39.24 13.06L41.80 6.96C41.87 6.79 41.79 6.59 41.62 6.52C41.47 6.45 41.26 6.54 41.19 6.71L38.92 12.11L37.34 8.34C37.28 8.22 37.14 8.13 37.00 8.13C36.88 8.13 36.74 8.22 36.68 8.34L35.10 12.11L32.82 6.71C32.76 6.54 32.55 6.45 32.38 6.52C32.23 6.59 32.14 6.79 32.21 6.96L34.79 13.09C34.82 13.16 34.86 13.22 34.93 13.24C34.94 13.26 34.96 13.27 34.99 13.27ZM44.69 12.96C44.69 13.16 44.84 13.30 45.04 13.30C45.21 13.30 45.36 13.16 45.36 12.96L45.36 9.95C45.36 9.93 45.36 9.90 45.39 9.84C45.49 9.56 45.75 8.86 46.21 8.25C46.69 7.63 47.31 7.13 48.20 7.13C48.38 7.13 48.54 6.97 48.54 6.79C48.54 6.59 48.38 6.45 48.20 6.45C46.89 6.45 45.98 7.32 45.46 8.13C45.42 8.19 45.39 8.25 45.36 8.30L45.36 6.79C45.36 6.59 45.21 6.45 45.04 6.45C44.84 6.45 44.69 6.59 44.69 6.79L44.69 12.96ZM55.90 6.44C55.72 6.44 55.57 6.58 55.57 6.78L55.57 7.78C54.98 6.97 54.04 6.44 52.99 6.44C51.18 6.44 49.74 7.99 49.74 9.87C49.74 11.75 51.18 13.30 52.99 13.30C54.04 13.30 54.98 12.75 55.57 11.94L55.57 12.96C55.57 13.15 55.72 13.30 55.90 13.30C56.08 13.30 56.24 13.15 56.24 12.96L56.24 6.78C56.24 6.58 56.08 6.44 55.90 6.44ZM52.99 12.63C51.59 12.63 50.41 11.41 50.41 9.87C50.41 8.33 51.59 7.10 52.99 7.10C54.40 7.10 55.57 8.33 55.57 9.87C55.57 11.41 54.40 12.63 52.99 12.63ZM59.15 15.83C59.15 16.02 59.30 16.17 59.49 16.17C59.68 16.17 59.84 16.02 59.84 15.83L59.84 11.91C60.42 12.73 61.38 13.26 62.44 13.26C64.29 13.26 65.76 11.70 65.76 9.84C65.76 7.97 64.29 6.44 62.44 6.44C61.38 6.44 60.42 6.97 59.84 7.77L59.84 6.78C59.84 6.59 59.68 6.44 59.49 6.44C59.30 6.44 59.15 6.59 59.15 6.78L59.15 9.70L59.15 9.84L59.15 9.98ZM59.84 9.73C59.89 8.27 61.05 7.13 62.44 7.13C63.90 7.13 65.07 8.33 65.07 9.84C65.07 11.35 63.90 12.57 62.44 12.59C61.03 12.57 59.84 11.35 59.84 9.84Z"/></g><defs data-v-fde0c5aa=""><linearGradient data-v-fde0c5aa="" gradientTransform="rotate(25)" id="404ef180-12b6-48c4-b9e2-fdbe75a0c813" x1="0%" y1="0%" x2="100%" y2="0%"><stop data-v-fde0c5aa="" offset="0%" stop-color="#0076DD" stop-opacity="1"/><stop data-v-fde0c5aa="" offset="100%" stop-color="#E600E9" stop-opacity="1"/></linearGradient></defs><g data-v-fde0c5aa="" id="dd41fe85-6786-4be5-bf69-c1d4212e1c0d" stroke="none" fill="url(#404ef180-12b6-48c4-b9e2-fdbe75a0c813)" transform="matrix(0.40058743784603634,0,0,0.40058743784603634,36.51168451788696,129.9706281076982)"><path d="M52.589 0c-17.279 0-31.19 14.068-31.19 31.37v6.237H8.708v43.957C8.708 91.94 17.445 100 27.823 100h37.645c10.376 0 18.323-8.06 18.323-18.436V31.37C83.791 14.068 69.877 0 52.589 0zm1.474 82.367c.114.424.021.868-.241 1.221-.273.348-.682.55-1.124.55H40.593a1.408 1.408 0 0 1-1.363-1.773l3.416-12.996a7.763 7.763 0 0 1-3.803-6.697c0-4.312 3.5-7.81 7.803-7.81 4.301 0 7.804 3.498 7.804 7.81a7.773 7.773 0 0 1-3.803 6.698l3.416 12.997zm18.096-44.76h-38.07V31.37c0-10.378 8.664-18.821 19.033-18.821 10.379 0 19.037 8.443 19.037 18.821v6.237z"/></g><!----></svg>